<?xml version="1.0" standalone="no"?>
<!DOCTYPE svg PUBLIC "-//W3C//DTD SVG 20010904//EN"
 "http://www.w3.org/TR/2001/REC-SVG-20010904/DTD/svg10.dtd">
<svg version="1.0" xmlns="http://www.w3.org/2000/svg"
 width="476.000000pt" height="92.000000pt" viewBox="0 0 476.000000 92.000000"
 preserveAspectRatio="xMidYMid meet">

<g transform="translate(0.000000,92.000000) scale(0.100000,-0.100000)"
fill="#000000" stroke="none">
<path d="M294 651 c-78 -36 -122 -129 -111 -235 6 -57 33 -120 64 -148 72 -66
192 -62 253 8 l25 29 -25 -22 c-33 -29 -92 -53 -128 -53 -33 0 -86 33 -114 70
-26 35 -40 132 -29 201 18 108 55 149 145 160 l51 6 -45 1 c-25 1 -63 -7 -86
-17z"/>
<path d="M2173 663 c15 -4 17 -23 17 -219 l0 -214 25 0 25 0 0 215 0 215 65 0
c57 0 69 -3 90 -25 l25 -24 0 29 0 30 -132 -1 c-73 -1 -125 -3 -115 -6z"/>
<path d="M3703 663 c15 -4 17 -23 17 -219 l0 -214 23 0 22 0 -3 210 -3 210 23
10 c18 7 9 9 -37 8 -33 0 -52 -2 -42 -5z"/>
<path d="M478 634 c23 -16 29 -48 12 -59 -13 -8 -13 -42 0 -50 16 -10 40 14
40 40 0 25 -45 85 -63 85 -6 0 -1 -7 11 -16z"/>
<path d="M613 523 c15 -4 17 -20 17 -149 0 -143 0 -144 23 -144 21 0 22 3 22
88 0 104 6 130 42 174 15 18 19 26 9 18 -11 -8 -27 -28 -38 -45 l-18 -30 0 48
0 47 -37 -1 c-21 -1 -30 -3 -20 -6z"/>
<path d="M765 523 c31 -8 38 -19 24 -42 -11 -16 -11 -23 -1 -33 10 -10 16 -9
29 5 16 16 16 20 3 45 -11 19 -24 28 -45 29 -18 1 -22 0 -10 -4z"/>
<path d="M925 499 c-56 -50 -68 -135 -29 -211 19 -37 50 -56 104 -63 l45 -6
-45 18 c-58 23 -80 65 -80 149 0 85 28 128 88 132 38 3 43 0 62 -30 11 -18 20
-50 20 -70 0 -34 3 -38 26 -38 24 0 25 2 19 33 -18 80 -60 117 -134 117 -31 0
-49 -7 -76 -31z"/>
<path d="M1284 511 c-89 -54 -82 -238 10 -276 63 -27 106 -15 144 38 l22 32 0
-38 c0 -32 3 -37 23 -37 22 0 22 0 19 150 -3 141 -4 150 -23 150 -16 0 -19 -7
-19 -42 l0 -43 -18 28 c-10 15 -27 34 -38 42 -27 20 -83 18 -120 -4z m125 -16
c75 -64 64 -206 -21 -254 -21 -12 -30 -12 -57 -1 -43 17 -63 61 -64 134 -1
123 68 182 142 121z"/>
<path d="M1603 523 c15 -4 17 -20 17 -149 0 -143 0 -144 23 -144 24 0 23 -19
18 248 l-1 52 -37 -1 c-21 -1 -30 -3 -20 -6z"/>
<path d="M1767 523 c13 -2 32 -16 43 -31 19 -24 21 -37 18 -144 -3 -117 -3
-118 20 -118 21 0 22 3 22 90 0 107 19 164 61 185 79 41 104 4 104 -157 0
-117 0 -118 24 -118 l23 0 -3 126 c-4 123 -5 126 -32 150 -48 41 -131 24 -160
-32 l-14 -26 -13 32 c-14 34 -45 51 -88 49 -23 -2 -24 -2 -5 -6z"/>
<path d="M2513 523 c15 -4 17 -20 17 -149 0 -143 0 -144 23 -144 21 0 22 3 22
88 0 48 4 101 8 117 5 21 5 26 -3 15 -7 -11 -10 -3 -10 33 l0 47 -37 -1 c-21
-1 -30 -3 -20 -6z"/>
<path d="M2670 521 c15 -5 23 -14 21 -22 -14 -49 8 -78 29 -39 17 31 -11 70
-48 69 l-27 -1 25 -7z"/>
<path d="M2854 520 c-30 -12 -71 -64 -79 -101 -11 -48 4 -116 31 -149 25 -29
93 -56 117 -46 7 2 4 5 -5 5 -64 3 -98 56 -98 154 0 87 28 131 86 135 31 2 44
-2 62 -21 54 -57 44 -222 -16 -256 -15 -9 -15 -10 -1 -11 25 0 70 40 85 76 32
76 2 179 -60 208 -37 17 -88 20 -122 6z"/>
<path d="M3133 523 c15 -4 17 -20 17 -149 0 -143 0 -144 23 -144 21 0 22 2 21
103 -1 63 3 108 10 116 8 11 8 13 -1 7 -10 -5 -13 4 -13 33 0 41 0 41 -37 40
-21 -1 -30 -3 -20 -6z"/>
<path d="M3296 523 c12 -2 30 -13 40 -25 16 -17 19 -37 19 -144 0 -121 1 -124
22 -124 21 0 22 5 25 108 4 148 -20 195 -100 191 -22 -1 -23 -3 -6 -6z"/>
<path d="M3505 519 c49 -14 55 -31 55 -166 0 -121 0 -123 23 -123 22 0 22 0
17 131 -5 122 -7 132 -29 150 -14 11 -38 19 -60 18 l-36 -1 30 -9z"/>
<path d="M3944 520 c-33 -13 -72 -66 -79 -109 -9 -53 11 -119 46 -152 28 -26
103 -48 116 -35 4 3 -1 6 -11 6 -30 0 -75 30 -91 60 -21 40 -19 136 3 180 11
24 28 39 52 47 29 10 31 12 10 12 -14 0 -34 -4 -46 -9z"/>
<path d="M4284 520 c-33 -13 -74 -69 -75 -103 -6 -127 28 -180 123 -192 l43
-6 -44 18 c-55 23 -81 67 -81 141 0 97 36 147 102 140 38 -4 66 -44 70 -101 2
-31 6 -37 25 -37 15 0 23 6 23 18 0 31 -44 106 -70 119 -28 14 -85 16 -116 3z"/>
<path d="M1699 493 l-24 -28 30 25 c17 14 32 26 34 28 2 1 0 2 -6 2 -5 0 -20
-12 -34 -27z"/>
<path d="M2609 493 l-24 -28 28 24 c15 14 27 26 27 28 0 8 -8 1 -31 -24z"/>
<path d="M3229 493 l-24 -28 30 25 c17 14 32 26 34 28 2 1 0 2 -6 2 -5 0 -20
-12 -34 -27z"/>
<path d="M4081 501 c22 -17 22 -21 9 -45 -14 -28 -2 -55 19 -42 26 17 -9 106
-41 106 -6 0 0 -9 13 -19z"/>
<path d="M2355 488 c-6 -13 -21 -25 -35 -27 l-25 -4 25 -6 c14 -4 30 -18 37
-31 12 -23 13 -20 13 33 0 31 -1 57 -3 57 -1 0 -7 -10 -12 -22z"/>
<path d="M3429 493 c-13 -16 -12 -17 4 -4 9 7 17 15 17 17 0 8 -8 3 -21 -13z"/>
<path d="M1115 289 c-4 -11 -21 -29 -38 -40 -18 -10 -26 -19 -19 -19 16 0 72
54 72 69 0 18 -8 13 -15 -10z"/>
<path d="M4105 289 c-4 -11 -21 -29 -38 -40 -18 -10 -26 -19 -19 -19 16 0 72
54 72 69 0 18 -8 13 -15 -10z"/>
<path d="M4424 258 l-19 -23 23 19 c12 11 22 21 22 23 0 8 -8 2 -26 -19z"/>
</g>
</svg>
